HIERARCHY
ROOT pelvis
{
  OFFSET 0 100 0
  CHANNELS 6 Xposition Yposition Zposition Zrotation Xrotation Yrotation
  JOINT pelvis_right_femur
  {
    OFFSET -10.78128 -3.44521 -0.5502486
    CHANNELS 3 Zrotation Xrotation Yrotation
    JOINT right_femur_tibia
    {
      OFFSET -0.8047443 -44.0398 -0.1307829
      CHANNELS 3 Zrotation Xrotation Yrotation
      JOINT right_tibia_foot
      {
        OFFSET 3.006224 -47.83518 -5
        CHANNELS 3 Zrotation Xrotation Yrotation
        End Site
        {
          OFFSET 0 -5 15
        }
      }
    }
  }
  JOINT pelvis_left_femur
  {
    OFFSET 10.78128 -3.44521 -0.5502486
    CHANNELS 3 Zrotation Xrotation Yrotation
    JOINT left_femur_tibia
    {
      OFFSET 0.8047443 -44.0398 -0.1307829
      CHANNELS 3 Zrotation Xrotation Yrotation
      JOINT left_tibia_foot
      {
        OFFSET -4.370144 -48.10324 -4.275266
        CHANNELS 3 Zrotation Xrotation Yrotation
        End Site
        {
          OFFSET 0 -5 15
        }
      }
    }
  }
  JOINT pelvis_spine1
  {
    OFFSET 0 6.468898 -3.129235
    CHANNELS 3 Zrotation Xrotation Yrotation
    JOINT spine1
    {
      OFFSET 0 23.15396 4.99043
      CHANNELS 3 Zrotation Xrotation Yrotation
      JOINT spine2
      {
        OFFSET 0 20.79997 -5.064912
        CHANNELS 3 Zrotation Xrotation Yrotation
        JOINT neck
        {
          OFFSET 0 14.38658 9.616178
          CHANNELS 3 Zrotation Xrotation Yrotation
          End Site
          {
            OFFSET 0 20 0
          }
        }
      }
      JOINT right_manubrium
      {
        OFFSET -5.722621 16.35077 3.967754
        CHANNELS 3 Zrotation Xrotation Yrotation
        JOINT right_clavicle
        {
          OFFSET -13.16364 1.694482 -4.693211
          CHANNELS 3 Zrotation Xrotation Yrotation
          JOINT right_humerus
          {
            OFFSET -28.5034 -0.3100689 -2.792744
            CHANNELS 3 Zrotation Xrotation Yrotation
            JOINT right_radius
            {
              OFFSET -25.15693 0.02248979 -1.271978
              CHANNELS 3 Zrotation Xrotation Yrotation
              End Site
              {
                OFFSET -15 0 0
              }
            }
          }
        }
      }
      JOINT left_manubrium
      {
        OFFSET 5.722621 16.35077 3.967754
        CHANNELS 3 Zrotation Xrotation Yrotation
        JOINT left_clavicle
        {
          OFFSET 13.16364 1.694482 -4.693211
          CHANNELS 3 Zrotation Xrotation Yrotation
          JOINT left_humerus
          {
            OFFSET 29.39168 -1.063119 -2.237045
            CHANNELS 3 Zrotation Xrotation Yrotation
            JOINT left_radius
            {
              OFFSET 24.59957 -0.9528479 0.9047498
              CHANNELS 3 Zrotation Xrotation Yrotation
              End Site
              {
                OFFSET 15 -0 -0
              }
            }
          }
        }
      }
    }
  }
}
MOTION
Frames: 8
Frame Time: 0.0416666666667
30.9566 107.807 234.7849 1.163534 -5.783913 0.6000979 1.313382 12.19734 6.253362 2.594395e-10 33.1176 -1.450742e-10 -1.758909 -12.56533 -2.681474 -3.052594 -17.74849 -10.24138 4.850736e-11 19.09481 -1.31782e-11 -2.522132 -8.977068 21.65634 -2.135744 -0.5985496 7.720109 -0.4069607 10.18132 -3.782868 1.986496 22.77348 5.129893 2.025884 -19.47653 7.594794 3.246233 -21.99468 11.21175 81.73754 29.1284 -7.130521 2.019523e-11 -1.420825e-11 22.33139 -20.99831 11.91109 12.42697 3.766093 -15.95774 -2.606968 -96.24009 23.62087 28.33798 6.60607e-12 -7.914769e-12 -7.650809 1.010678 10.90728 13.80502
31.94015 107.8174 239.7461 1.213295 -5.464405 0.6334058 1.142557 9.466103 6.232569 2.750525e-10 34.91866 -1.621334e-10 -1.732789 -11.9408 -2.865835 -3.724723 -15.11325 -11.26507 1.013848e-11 16.49364 -7.074317e-11 -1.999519 -10.30346 21.78231 -2.389355 -0.6993575 7.340625 -0.2670692 10.05388 -4.088042 1.94884 22.88146 5.388357 2.12706 -19.79326 7.849935 3.495019 -21.71929 11.18125 82.51478 29.68858 -8.06963 2.077031e-11 -7.174863e-12 21.80633 -20.54347 11.80888 12.18004 3.975709 -16.21976 -2.586015 -96.29595 24.14451 27.62176 4.912148e-12 -7.48375e-12 -8.504832 1.12954 11.1784 13.73731
32.89849 107.7837 244.5675 1.265908 -5.077834 0.8126842 1.011448 5.64299 6.100621 2.866356e-10 36.8498 -1.787485e-10 -1.817771 -11.01496 -3.125281 -4.477492 -11.43483 -12.45163 -4.056127e-11 13.53519 -1.413721e-10 -1.324457 -12.00834 21.88212 -2.677299 -0.8315522 6.815192 -0.06759199 9.937412 -4.525479 1.899922 23.0309 5.705944 2.260907 -20.20912 8.162484 3.756677 -21.33888 11.15003 83.76418 30.30637 -9.523221 2.092365e-11 1.930834e-12 20.96779 -19.9535 11.67934 11.80262 4.277374 -16.69385 -2.619847 -96.28124 24.71995 26.52615 2.692303e-12 -6.546607e-12 -9.806106 1.420044 11.59379 13.46367
33.8 107.7147 249.2185 1.279575 -4.597226 1.121621 1.007056 0.9438226 5.844601 2.761134e-10 37.93786 -1.792979e-10 -1.993887 -9.899271 -3.434959 -5.112373 -6.951378 -13.48302 -8.884091e-11 11.08778 -2.024016e-10 -0.680823 -13.73139 21.69047 -2.90859 -0.9592171 6.152541 0.1964072 9.766512 -5.045766 1.835107 23.01446 5.997681 2.381225 -20.538 8.41641 3.968297 -20.66869 11.03441 84.65404 30.80598 -11.21455 1.991801e-11 1.002297e-11 19.62424 -19.06054 11.50312 11.16704 4.605218 -17.252 -2.686753 -95.30504 25.31572 24.70801 3.42993e-13 -5.506026e-12 -11.51403 1.86111 11.99136 12.90027
34.62896 107.6038 253.7312 1.255474 -4.200653 1.531666 1.114943 -3.836382 5.442678 2.486189e-10 38.17497 -1.674744e-10 -2.353792 -8.636252 -3.73184 -5.548901 -2.40135 -14.2145 -1.306549e-10 9.477115 -2.499484e-10 -0.109981 -15.26165 21.33374 -3.044839 -1.079763 5.471937 0.4657553 9.669589 -5.578344 1.775931 22.9566 6.217752 2.482098 -20.79358 8.591431 4.038468 -19.96813 10.91206 85.60884 31.02513 -13.04172 1.802118e-11 1.766311e-11 18.0796 -18.1982 11.31209 10.45768 4.944474 -17.94842 -2.848301 -93.99339 25.64234 22.63655 -1.8249e-12 -3.82516e-12 -13.36736 2.50944 12.42937 12.02006
35.36307 107.4656 258.1216 1.1826 -3.860717 1.998787 1.326333 -8.491134 4.92941 2.013826e-10 37.27584 -1.40581e-10 -2.837638 -7.307365 -3.989032 -5.778402 2.012298 -14.57145 -1.586765e-10 8.877477 -2.751872e-10 0.3046487 -16.43856 20.69016 -3.061138 -1.177683 4.783478 0.734095 9.587158 -6.078464 1.720125 22.73764 6.329842 2.536703 -20.87016 8.633838 3.959856 -19.14428 10.73159 86.03983 30.93481 -14.73376 1.512182e-11 2.360449e-11 16.29537 -17.27258 11.08196 9.629817 5.248637 -18.65172 -3.068588 -91.89044 25.68797 20.18806 -3.625397e-12 -1.833499e-12 -15.25256 3.300138 12.7922 10.84837
35.97813 107.3128 262.4483 1.057912 -3.625262 2.470755 1.680023 -12.92135 4.349734 1.351529e-10 35.24646 -1.000402e-10 -3.477743 -6.014735 -4.222687 -5.840465 6.138196 -14.58888 -1.674853e-10 9.673046 -2.713358e-10 0.5231533 -17.25598 19.85185 -2.948466 -1.255055 4.14527 1.006563 9.593997 -6.573157 1.67291 22.49713 6.354586 2.564607 -20.88236 8.58362 3.754354 -18.32621 10.57973 86.54049 30.60418 -16.5078 1.099342e-11 2.721453e-11 14.38651 -16.42606 10.88866 8.761573 5.534306 -19.48245 -3.368861 -89.66782 25.38886 17.6605 -4.927459e-12 3.529967e-13 -17.24826 4.248456 13.13578 9.448289
36.4624 107.1617 266.7653 0.8999435 -3.481208 2.902372 2.131342 -16.82676 3.795382 6.067927e-11 32.41372 -5.424289e-11 -4.177159 -4.897271 -4.42258 -5.787817 9.693558 -14.34072 -1.585624e-10 11.63428 -2.41445e-10 0.5430929 -17.70204 18.90933 -2.73737 -1.307842 3.604648 1.267006 9.665341 -7.028904 1.634774 22.25777 6.309959 2.56929 -20.8489 8.464742 3.477767 -17.56656 10.46824 87.0455 30.13279 -18.2133 6.025138e-12 2.820206e-11 12.52292 -15.69395 10.75169 7.922436 5.77669 -20.34707 -3.700279 -87.56384 24.84064 15.29182 -5.677716e-12 2.351484e-12 -19.19595 5.230834 13.41512 8.004023
